<?xml version="1.0" standalone="no"?>
<!DOCTYPE svg PUBLIC "-//W3C//DTD SVG 20010904//EN"
 "http://www.w3.org/TR/2001/REC-SVG-20010904/DTD/svg10.dtd">
<svg version="1.0" xmlns="http://www.w3.org/2000/svg"
 width="457.000000pt" height="457.000000pt" viewBox="0 0 457.000000 457.000000"
 preserveAspectRatio="xMidYMid meet">
<metadata>
Created by potrace 1.14, written by Peter Selinger 2001-2017
</metadata>
<g transform="translate(0.000000,457.000000) scale(0.100000,-0.100000)"
fill="#000000" stroke="none">
<path d="M1090 2953 c-22 -9 -36 -26 -45 -53 -9 -29 -10 -898 -1 -927 14 -45
50 -50 362 -48 311 1 304 0 332 52 17 32 15 49 -12 80 l-24 28 -244 1 -243 1
-1 399 c0 219 -4 409 -8 422 -12 37 -74 61 -116 45z"/>
<path d="M3335 2930 c-39 -15 -51 -42 -46 -105 2 -29 60 -66 95 -59 44 8 68
37 70 83 1 66 -56 105 -119 81z"/>
<path d="M3595 2908 c-42 -50 -29 -109 30 -134 59 -24 115 14 115 78 0 81 -94
117 -145 56z"/>
<path d="M113 2874 c-16 -41 -8 -138 16 -187 45 -94 182 -207 329 -272 88 -39
71 -41 -24 -2 -114 46 -204 100 -268 158 l-56 51 0 -46 c0 -112 104 -227 295
-327 52 -27 102 -49 110 -49 8 0 15 -4 15 -9 0 -16 -84 14 -190 66 -57 29
-106 50 -108 48 -8 -8 52 -98 92 -137 71 -69 221 -153 331 -183 36 -10 36 -10
55 -18 15 -7 182 -40 258 -52 l43 -7 -6 82 c-3 45 -7 85 -9 89 -2 3 -6 29 -10
56 -28 241 -68 289 -341 409 -314 139 -422 205 -493 305 -27 38 -33 41 -39 25z"/>
<path d="M1975 2675 c-117 -26 -204 -98 -258 -215 -48 -105 -41 -246 18 -360
24 -46 105 -123 156 -148 104 -50 251 -49 356 4 68 35 103 75 103 118 0 70
-60 84 -145 36 -123 -70 -258 -37 -323 79 -22 38 -22 41 -5 42 10 0 124 2 253
3 129 1 243 6 252 10 27 12 41 70 33 134 -12 96 -61 180 -141 242 -67 53 -202
78 -299 55z m158 -156 c46 -12 100 -58 117 -99 22 -54 19 -55 -176 -53 -99 1
-187 2 -197 2 -16 1 -16 4 4 43 12 23 26 47 33 52 62 59 138 78 219 55z"/>
<path d="M4168 2685 c-2 -2 -19 -5 -38 -6 -19 -2 -46 -9 -60 -16 -14 -7 -31
-13 -37 -13 -7 0 -13 -4 -13 -10 0 -5 -6 -10 -12 -10 -15 0 -52 -52 -67 -93
-38 -99 28 -214 149 -264 19 -7 44 -18 55 -22 11 -5 42 -17 70 -27 55 -19 95
-54 95 -81 -2 -78 -131 -87 -246 -18 -68 41 -96 44 -129 10 -39 -38 -34 -79
18 -130 53 -53 135 -84 234 -90 137 -7 245 50 281 148 42 112 2 207 -113 266
-47 24 -98 45 -105 43 -3 0 -35 14 -70 31 -75 37 -91 66 -59 98 32 32 106 22
200 -25 88 -43 120 -39 143 15 37 88 -73 180 -232 192 -33 3 -62 4 -64 2z"/>
<path d="M2439 2651 c-20 -21 -29 -39 -29 -63 0 -35 13 -52 171 -213 l69 -70
-56 -60 c-31 -33 -84 -89 -119 -125 -35 -36 -66 -77 -69 -91 -8 -49 39 -109
82 -103 6 1 18 2 26 3 8 0 32 19 53 42 21 23 52 55 68 73 17 17 53 57 82 88
l52 56 88 -96 c48 -53 103 -111 121 -129 64 -65 152 -35 152 51 0 44 11 29
-207 258 l-35 36 38 40 c119 121 186 195 194 217 13 34 4 67 -25 93 -46 40
-94 24 -162 -55 -23 -26 -69 -77 -102 -113 l-61 -65 -51 55 c-29 30 -77 82
-108 115 -88 95 -122 106 -172 56z"/>
<path d="M3204 2669 c-43 -21 -48 -50 -47 -237 0 -221 2 -236 46 -322 47 -90
142 -167 231 -186 26 -6 114 -6 143 0 47 10 110 44 135 74 15 18 28 32 30 32
2 0 4 -14 5 -32 7 -100 131 -90 134 10 5 221 -1 598 -10 620 -14 32 -62 56
-96 48 -38 -10 -65 -45 -66 -85 0 -20 -1 -110 -2 -201 -3 -178 -9 -204 -63
-253 -61 -57 -177 -57 -244 -1 -60 51 -64 69 -68 291 -4 192 -5 202 -26 222
-27 25 -73 34 -102 20z"/>
<path d="M2033 1880 c-81 -49 -90 -160 -18 -222 45 -38 157 -30 170 13 10 32
-3 38 -44 17 -47 -23 -83 -17 -111 19 -37 47 -23 111 30 138 35 18 35 18 81
-6 37 -18 49 -17 49 7 0 41 -107 64 -157 34z"/>
<path d="M3523 1893 c-10 -3 -13 -39 -13 -129 0 -92 3 -124 13 -125 61 -6 190
-2 195 5 6 11 10 146 4 164 -5 15 -28 16 -38 0 -4 -6 -6 -39 -5 -72 l2 -61
-53 1 c-29 1 -58 2 -64 3 -7 1 -10 35 -10 98 1 95 -7 125 -31 116z"/>
<path d="M4410 1881 c-22 -17 -135 -55 -194 -67 -41 -8 -71 -41 -94 -104 -12
-35 -20 -65 -18 -67 2 -3 28 -5 58 -5 77 -1 158 25 193 63 24 25 26 29 8 20
-12 -6 -25 -11 -30 -11 -4 1 6 8 22 17 44 23 75 54 75 74 0 17 -2 17 -37 -2
l-38 -21 25 21 c14 11 28 21 32 21 9 0 38 54 38 70 0 15 -11 12 -40 -9z"/>
<path d="M2886 1875 c-8 -22 0 -34 22 -31 22 4 23 40 1 44 -9 2 -19 -4 -23
-13z"/>
<path d="M3683 1875 c-6 -18 1 -28 22 -31 15 -2 28 23 19 37 -9 14 -34 10 -41
-6z"/>
<path d="M2615 1866 c-11 -7 -15 -18 -11 -25 5 -8 1 -14 -12 -18 -31 -8 -36
-32 -9 -42 20 -8 23 -15 21 -62 -1 -62 10 -91 31 -83 11 5 15 23 15 75 0 62 2
69 20 69 12 0 20 7 20 16 0 9 -9 18 -20 21 -13 3 -20 14 -20 29 0 29 -12 37
-35 20z"/>
<path d="M2253 1815 c-37 -16 -53 -36 -58 -75 -7 -56 22 -93 83 -105 36 -6 70
11 92 47 l20 33 0 -38 c0 -34 3 -38 22 -35 19 3 22 9 22 54 1 57 17 84 51 84
28 0 38 -20 40 -80 1 -54 10 -71 30 -63 21 7 20 116 -1 148 -22 33 -65 47 -97
30 -17 -9 -28 -10 -35 -3 -18 18 -32 -2 -33 -50 -1 -46 -1 -46 -9 -13 -14 58
-73 89 -127 66z m68 -45 c13 -8 19 -20 17 -41 -4 -49 -44 -68 -82 -38 -55 43
2 112 65 79z"/>
<path d="M2744 1818 c-48 -12 -69 -53 -62 -120 4 -47 82 -79 126 -52 12 8 22
10 22 4 0 -5 8 -10 18 -10 16 0 19 10 20 84 2 82 -9 116 -28 85 -6 -9 -12 -10
-22 -2 -22 17 -42 20 -74 11z m72 -63 c15 -23 15 -27 0 -50 -9 -14 -22 -26
-29 -26 -56 -6 -89 48 -51 85 24 24 61 20 80 -9z"/>
<path d="M3205 1821 c-33 -10 -51 -25 -68 -56 -14 -25 -16 -27 -17 -9 -1 48
-94 86 -128 52 -9 -9 -12 -9 -12 0 0 16 -30 16 -31 0 -1 -7 -3 -48 -3 -90 -1
-75 -1 -78 21 -78 21 0 23 4 23 58 0 63 11 82 47 82 30 0 43 -28 43 -90 0 -48
2 -51 23 -48 19 3 22 9 21 43 l-1 40 13 -31 c16 -39 31 -51 73 -57 41 -7 81
10 81 35 0 20 -12 23 -38 7 -12 -7 -25 -7 -44 0 -58 22 -26 36 70 31 30 -1 32
1 32 30 0 52 -55 95 -105 81z m57 -55 c14 -20 9 -23 -37 -22 -47 1 -56 11 -28
31 18 13 54 8 65 -9z"/>
<path d="M3802 1814 c-11 -7 -22 -10 -26 -7 -4 4 -13 8 -20 9 -11 2 -14 -17
-15 -86 -1 -80 1 -88 19 -93 23 -6 22 -8 25 61 4 60 17 82 51 82 34 0 44 -21
44 -95 0 -38 3 -45 20 -45 16 0 20 7 21 38 0 29 2 33 8 17 20 -47 79 -73 127
-55 25 10 42 36 31 47 -4 3 -20 0 -36 -6 -22 -10 -34 -10 -50 -1 -41 21 -24
35 40 33 68 -2 79 8 59 57 -15 35 -21 40 -66 50 -41 10 -94 -21 -105 -60 -4
-14 -7 -18 -8 -9 -3 48 -82 89 -119 63z m258 -49 c14 -17 16 -17 -33 -19 -39
-2 -53 6 -42 24 9 15 61 12 75 -5z"/>
<path d="M2888 1813 c-3 -4 -4 -44 -4 -88 1 -73 3 -80 21 -80 18 0 20 7 20 85
0 71 -3 85 -17 88 -9 2 -18 -1 -20 -5z"/>
<path d="M3319 1815 c0 -3 0 -34 0 -70 0 -111 -1 -107 22 -103 19 3 22 10 23
56 1 42 5 56 21 65 11 6 22 12 25 12 14 1 30 18 30 31 0 18 -51 19 -69 2 -11
-10 -14 -10 -18 0 -4 11 -32 18 -34 7z"/>
</g>
</svg>
